<svg width="15" height="15" viewBox="0 0 15 15" fill="none" xmlns="http://www.w3.org/2000/svg">
<g clip-path="url(#clip0_110_291)">
<path d="M6.24986 8.75L13.1249 1.875M6.24986 8.75L8.43736 13.125C8.46478 13.1848 8.50881 13.2355 8.5642 13.2711C8.6196 13.3066 8.68404 13.3255 8.74986 13.3255C8.81568 13.3255 8.88012 13.3066 8.93552 13.2711C8.99091 13.2355 9.03494 13.1848 9.06236 13.125L13.1249 1.875M6.24986 8.75L1.87486 6.5625C1.81502 6.53508 1.76431 6.49105 1.72876 6.43566C1.69321 6.38026 1.67432 6.31582 1.67432 6.25C1.67432 6.18418 1.69321 6.11974 1.72876 6.06434C1.76431 6.00895 1.81502 5.96492 1.87486 5.9375L13.1249 1.875" stroke="#F8F8F8" stroke-width="2" stroke-linecap="round" stroke-linejoin="round"/>
</g>
<defs>
<clipPath id="clip0_110_291">
<rect width="15" height="15" fill="white"/>
</clipPath>
</defs>
</svg>
