<svg width="34" height="34" viewBox="0 0 34 34" fill="none" xmlns="http://www.w3.org/2000/svg">
<path d="M18.4168 4.24997C15.0353 4.24997 11.7923 5.59326 9.40121 7.98434C7.01014 10.3754 5.66685 13.6184 5.66685 16.9999H1.41688L6.92767 22.5107L7.02684 22.709L12.7501 16.9999H8.50016C8.50016 11.5174 12.9343 7.08329 18.4168 7.08329C23.8992 7.08329 28.3334 11.5174 28.3334 16.9999C28.3334 22.4823 23.8992 26.9165 18.4168 26.9165C15.6826 26.9165 13.2035 25.7973 11.4185 23.9982L9.40682 26.0098C10.5875 27.197 11.9915 28.1387 13.5379 28.7806C15.0843 29.4225 16.7424 29.7519 18.4168 29.7498C21.7982 29.7498 25.0412 28.4065 27.4323 26.0154C29.8234 23.6244 31.1667 20.3814 31.1667 16.9999C31.1667 13.6184 29.8234 10.3754 27.4323 7.98434C25.0412 5.59326 21.7982 4.24997 18.4168 4.24997ZM17.0001 11.3333V18.4165L23.0634 22.0149L24.0834 20.3007L19.1251 17.3541V11.3333H17.0001Z" fill="#F8F8F8"/>
</svg>
