<svg width="34" height="34" viewBox="0 0 34 34" fill="none" xmlns="http://www.w3.org/2000/svg">
<path d="M5.6665 25.4998C5.6665 23.9969 6.26352 22.5556 7.32622 21.4929C8.38891 20.4302 9.83024 19.8332 11.3331 19.8332H22.6664C24.1693 19.8332 25.6106 20.4302 26.6733 21.4929C27.736 22.5556 28.333 23.9969 28.333 25.4998C28.333 26.2513 28.0345 26.9719 27.5032 27.5033C26.9718 28.0346 26.2511 28.3331 25.4997 28.3331H8.49981C7.74837 28.3331 7.02771 28.0346 6.49636 27.5033C5.96501 26.9719 5.6665 26.2513 5.6665 25.4998Z" stroke="white" stroke-width="1.5" stroke-linejoin="round"/>
<path d="M16.9998 14.1666C19.347 14.1666 21.2498 12.2638 21.2498 9.9166C21.2498 7.56941 19.347 5.66663 16.9998 5.66663C14.6527 5.66663 12.7499 7.56941 12.7499 9.9166C12.7499 12.2638 14.6527 14.1666 16.9998 14.1666Z" stroke="white" stroke-width="1.5"/>
</svg>
