<svg width="34" height="34" viewBox="0 0 34 34" fill="none" xmlns="http://www.w3.org/2000/svg">
<path d="M21.9583 19.8332H20.8392L20.4425 19.4507C21.8788 17.7847 22.6682 15.6579 22.6667 13.4582C22.6667 11.637 22.1266 9.85669 21.1148 8.3424C20.103 6.82811 18.6648 5.64786 16.9823 4.95091C15.2997 4.25395 13.4482 4.0716 11.662 4.4269C9.87573 4.78221 8.23497 5.65921 6.94717 6.94701C5.65937 8.23481 4.78237 9.87557 4.42706 11.6618C4.07176 13.448 4.25412 15.2995 4.95107 16.9821C5.64802 18.6647 6.82827 20.1028 8.34256 21.1146C9.85685 22.1265 11.6372 22.6665 13.4584 22.6665C15.7392 22.6665 17.8359 21.8307 19.4509 20.4424L19.8334 20.839V21.9582L26.9166 29.0273L29.0275 26.9165L21.9583 19.8332ZM13.4584 19.8332C9.93092 19.8332 7.08344 16.9857 7.08344 13.4582C7.08344 9.93076 9.93092 7.08328 13.4584 7.08328C16.9859 7.08328 19.8334 9.93076 19.8334 13.4582C19.8334 16.9857 16.9859 19.8332 13.4584 19.8332Z" fill="white"/>
</svg>
