<svg width="10" height="6" viewBox="0 0 10 6" fill="none" xmlns="http://www.w3.org/2000/svg">
<path d="M4.44852 5.74891L0.22131 1.33435C0.151184 1.26184 0.0955241 1.17557 0.0575401 1.08053C0.019556 0.985485 -2.23648e-07 0.88354 -2.28148e-07 0.780576C-2.32649e-07 0.677613 0.019556 0.575668 0.05754 0.480623C0.0955241 0.385578 0.151184 0.299314 0.22131 0.226806C0.36149 0.0815387 0.551117 4.52747e-07 0.748775 4.44107e-07C0.946433 4.35467e-07 1.13606 0.0815386 1.27624 0.226806L5.01713 4.0876L8.72062 0.226806C8.8608 0.0815383 9.05042 8.12306e-08 9.24808 7.25907e-08C9.44574 6.39508e-08 9.63537 0.0815383 9.77555 0.226806C9.84624 0.299041 9.90248 0.385184 9.94101 0.480241C9.97954 0.575299 9.99959 0.677382 10 0.780576C9.99959 0.88377 9.97954 0.985853 9.94101 1.08091C9.90248 1.17597 9.84624 1.26211 9.77555 1.33435L5.54834 5.74891C5.47828 5.82808 5.39325 5.89126 5.2986 5.93447C5.20396 5.97769 5.10175 6 4.99843 6C4.8951 6 4.7929 5.97769 4.69826 5.93447C4.60361 5.89126 4.51858 5.82808 4.44852 5.74891Z" fill="#959595"/>
</svg>
