<svg width="17" height="17" viewBox="0 0 17 17" fill="none" xmlns="http://www.w3.org/2000/svg">
<path d="M10.9852 9.00287L6.97606 13.0049C6.91021 13.0713 6.83187 13.124 6.74555 13.16C6.65923 13.196 6.56665 13.2145 6.47314 13.2145C6.37963 13.2145 6.28705 13.196 6.20073 13.16C6.11442 13.124 6.03607 13.0713 5.97023 13.0049C5.8383 12.8722 5.76425 12.6927 5.76425 12.5056C5.76425 12.3184 5.8383 12.1389 5.97023 12.0062L9.47647 8.46454L5.97022 4.9583C5.8383 4.82559 5.76425 4.64606 5.76425 4.45893C5.76425 4.2718 5.8383 4.09227 5.97022 3.95956C6.03583 3.89263 6.11406 3.83938 6.20039 3.80291C6.28671 3.76643 6.37942 3.74745 6.47314 3.74706C6.56686 3.74745 6.65957 3.76643 6.74589 3.80291C6.83222 3.83938 6.91045 3.89263 6.97606 3.95956L10.9852 7.96163C11.0571 8.02796 11.1145 8.10846 11.1537 8.19806C11.193 8.28767 11.2132 8.38443 11.2132 8.48225C11.2132 8.58007 11.193 8.67683 11.1537 8.76644C11.1145 8.85604 11.0571 8.93654 10.9852 9.00287Z" fill="#959595"/>
</svg>
