<svg width="26" height="28" viewBox="0 0 26 28" fill="none" xmlns="http://www.w3.org/2000/svg">
<path d="M9.19886 13.1717L15.3305 6.58002C15.4312 6.47067 15.5511 6.38388 15.6831 6.32465C15.8151 6.26542 15.9567 6.23492 16.0997 6.23492C16.2427 6.23492 16.3843 6.26542 16.5163 6.32465C16.6483 6.38388 16.7681 6.47067 16.8689 6.58002C17.0706 6.79861 17.1839 7.09431 17.1839 7.40252C17.1839 7.71074 17.0706 8.00643 16.8689 8.22502L11.5064 14.0584L16.8689 19.8334C17.0706 20.0519 17.1839 20.3476 17.1839 20.6559C17.1839 20.9641 17.0706 21.2598 16.8689 21.4784C16.7685 21.5886 16.6489 21.6763 16.5168 21.7364C16.3848 21.7964 16.243 21.8277 16.0997 21.8284C15.9564 21.8277 15.8146 21.7964 15.6825 21.7364C15.5505 21.6763 15.4309 21.5886 15.3305 21.4784L9.19886 14.8867C9.08889 14.7774 9.00114 14.6448 8.94111 14.4973C8.88109 14.3497 8.8501 14.1903 8.8501 14.0292C8.8501 13.8681 8.88109 13.7087 8.94111 13.5611C9.00114 13.4135 9.08889 13.2809 9.19886 13.1717Z" fill="white"/>
</svg>
